<svg width="174" height="76" viewBox="0 0 174 76" fill="none" xmlns="http://www.w3.org/2000/svg">
<path fill-rule="evenodd" clip-rule="evenodd" d="M0 22.9045V14.6871C0.173748 14.6871 0.377863 14.674 0.59676 14.6599C1.32005 14.6135 2.20455 14.5566 2.68565 14.9284C3.00192 15.1728 3.13448 15.6382 3.26165 16.0846C3.33601 16.3456 3.40854 16.6001 3.51476 16.8001C4.14212 17.9818 5.19214 18.9771 6.36053 19.6248C8.19642 20.6426 11.1978 20.6649 12.9523 19.4527C14.0645 18.6843 15.0188 16.9152 14.1943 15.6364C13.3853 14.3816 11.4998 13.7151 10.1297 13.3123C9.56012 13.1448 8.95381 12.9951 8.3337 12.8419C5.52503 12.1483 2.43201 11.3844 1.1708 8.58274C-0.174898 5.59339 1.39994 1.78549 4.47593 0.655198C7.69162 -0.526441 11.3687 0.0917126 14.1345 2.00881C14.1355 1.9283 14.1339 1.84257 14.1323 1.75377C14.1246 1.32793 14.1156 0.831901 14.3767 0.506624C14.8594 -0.0949788 16.466 -0.0408114 16.8194 0.674758C17.0516 1.14544 17.0149 1.81093 16.9824 2.39991C16.9716 2.59415 16.9614 2.78008 16.9614 2.94794V7.87839H13.8989C13.8896 4.62759 11.4291 2.80665 8.24513 2.7436C6.47257 2.70852 3.75551 4.18753 3.90298 6.2349C4.03998 8.13713 6.17206 9.15073 7.77398 9.57368C8.19912 9.68593 8.65952 9.79781 9.14182 9.91501C12.0039 10.6105 15.6368 11.4933 17.2432 13.7516C19.5987 17.0631 17.2177 21.585 13.6634 22.6876C11.469 23.368 8.50256 23.5016 6.36053 22.5906C5.35841 22.1643 4.53482 21.5612 3.69041 20.9427C3.40739 20.7354 3.12206 20.5265 2.8269 20.3219V22.9045H0ZM22.8508 2.71316V0.130547H30.6248C33.0794 0.130547 35.8197 0.204676 37.9241 1.64923C41.7936 4.30533 41.6584 10.7576 37.692 13.2144C35.4437 14.6072 32.6954 14.5409 30.0867 14.478C29.5516 14.4651 29.0224 14.4523 28.5046 14.4523V20.3219C28.6848 20.3219 28.9154 20.3054 29.1716 20.287C30.0923 20.221 31.3455 20.1313 31.796 20.6982C32.1278 21.1156 32.0883 21.8441 32.0557 22.4452C32.0467 22.6111 32.0382 22.7673 32.0382 22.9045H22.8508V20.3219H25.4421V2.71316H22.8508ZM47.115 2.71316H44.2881C44.2881 2.57591 44.2797 2.41975 44.2706 2.2539C44.238 1.65281 44.1985 0.924315 44.5303 0.506997C44.8457 0.110256 45.4491 0.120344 45.9429 0.128598C46.0229 0.129945 46.1001 0.131235 46.1727 0.130733L49.9419 0.130547C50.3631 0.130547 50.8018 0.123654 51.2522 0.116575C54.4268 0.0666781 58.1861 0.00760969 60.5122 2.2878C63.7652 5.47663 62.4597 11.9759 57.9515 13.0436L58.0203 13.1887C59.018 15.2917 60.1644 17.7083 61.5287 19.5828C61.8756 20.0594 62.3008 20.133 62.7314 20.2076C63.0617 20.2648 63.3952 20.3226 63.6988 20.5632C64.1763 20.9418 64.1296 21.7991 64.0934 22.4649C64.0846 22.6257 64.0764 22.7755 64.0764 22.9045C63.7648 22.9045 63.4069 22.9283 63.0285 22.9534C61.9342 23.026 60.6692 23.1099 59.8608 22.6632C59.085 22.2345 58.6609 21.2539 58.3045 20.4301C58.2533 20.3118 58.2036 20.1968 58.1543 20.0871C58.007 19.7588 57.8545 19.3908 57.6933 19.0021C57.0003 17.3316 56.1484 15.2778 54.8789 14.3382C53.8499 13.5766 52.3235 13.6496 50.9729 13.7141C50.6124 13.7313 50.2645 13.748 49.9419 13.748V20.3219C50.111 20.3219 50.3225 20.3073 50.556 20.2912C51.4124 20.2321 52.5641 20.1527 52.9978 20.6982C53.3296 21.1156 53.2901 21.8441 53.2575 22.4452C53.2484 22.6111 53.24 22.7673 53.24 22.9045H44.2881C44.2881 22.7673 44.2797 22.6111 44.2706 22.4452C44.238 21.8441 44.1985 21.1156 44.5303 20.6982C44.928 20.1979 45.8834 20.2559 46.6132 20.3002C46.7995 20.3115 46.9711 20.3219 47.115 20.3219V2.71316ZM71.1437 2.71316H68.3168C68.3168 2.58439 68.3086 2.43483 68.2999 2.27397C68.2635 1.60816 68.2167 0.749088 68.6944 0.371864C69.0563 0.0862959 69.6336 0.106301 70.1199 0.123167C70.2317 0.127036 70.3386 0.130748 70.437 0.130547H74.6773C74.7871 0.130733 74.9061 0.126764 75.0304 0.122608C75.5841 0.104137 76.2434 0.0821402 76.6554 0.40736C77.2378 0.86711 77.1688 2.23722 76.487 2.57149C75.9782 2.82102 75.2439 2.77744 74.595 2.73895C74.3727 2.72576 74.1603 2.71316 73.9706 2.71316V20.3219C74.1426 20.3219 74.3462 20.3086 74.5652 20.2944C75.2893 20.2473 76.1816 20.1892 76.6554 20.5632C77.3337 21.0986 77.1252 22.5831 76.2915 22.8298C75.7364 22.9941 75.0673 22.9604 74.4388 22.9287C74.1951 22.9165 73.9575 22.9045 73.735 22.9045H68.3168C68.3168 22.7673 68.3083 22.6111 68.2993 22.4452C68.2667 21.8441 68.2272 21.1156 68.559 20.6982C68.9566 20.1979 69.912 20.2559 70.6419 20.3002C70.8282 20.3115 70.9998 20.3219 71.1437 20.3219V2.71316ZM84.3359 2.71316H81.509C81.509 2.57591 81.5006 2.41975 81.4915 2.2539C81.4589 1.65281 81.4194 0.924315 81.7512 0.506997C82.0664 0.110256 82.6699 0.120344 83.1637 0.128598C83.2438 0.129945 83.321 0.131235 83.3936 0.130733C83.634 0.129085 83.8887 0.119169 84.1516 0.108937C85.4698 0.0576358 86.9926 -0.00163312 87.9261 0.933272C88.7996 1.80813 89.4845 2.97581 90.1465 4.10438C90.435 4.59637 90.7192 5.08092 91.0128 5.53056C91.9148 6.91193 92.7842 8.33203 93.6556 9.75552C95.3281 12.4876 97.0082 15.2322 98.9416 17.7393V2.71316H96.1147C96.1147 2.58439 96.1065 2.43483 96.0978 2.27397C96.0614 1.60816 96.0145 0.749088 96.4923 0.371864C96.8541 0.0862959 97.4314 0.106301 97.9178 0.123167C98.0295 0.127036 98.1364 0.130748 98.2348 0.130547H102.475C102.574 0.130748 102.681 0.127036 102.792 0.123167C103.279 0.106301 103.856 0.0862959 104.218 0.371864C104.696 0.749088 104.649 1.60816 104.612 2.27397C104.604 2.43483 104.595 2.58439 104.595 2.71316H101.768V22.9045C101.55 22.9045 101.314 22.9158 101.07 22.9275C100.266 22.966 99.3749 23.0087 98.7154 22.6632C97.5098 22.0314 96.6019 20.3604 95.8186 18.9188C95.5353 18.3973 95.2683 17.9058 95.0094 17.5045C94.2109 16.2667 93.4268 15.0081 92.6411 13.7468C90.9542 11.0389 89.2596 8.31865 87.3984 5.76534V20.3219C87.5423 20.3219 87.7139 20.3115 87.9002 20.3002C88.63 20.2559 89.5854 20.1979 89.9831 20.6982C90.3149 21.1156 90.2754 21.8441 90.2428 22.4452C90.2337 22.6111 90.2253 22.7673 90.2253 22.9045H81.509C81.509 22.7673 81.5006 22.6111 81.4915 22.4452C81.4589 21.8441 81.4194 21.1156 81.7512 20.6982C82.1488 20.1979 83.1043 20.2559 83.8341 20.3002C84.0204 20.3115 84.192 20.3219 84.3359 20.3219V2.71316ZM111.663 2.71316H108.836C108.836 2.58439 108.828 2.43483 108.819 2.27397C108.782 1.60816 108.736 0.749088 109.213 0.371864C109.575 0.0862959 110.152 0.106301 110.639 0.123167C110.751 0.127036 110.857 0.130748 110.956 0.130547L111.389 0.12963C112.58 0.12705 113.77 0.124485 114.961 0.130733C115.047 0.131192 115.139 0.129372 115.235 0.127495C115.733 0.117693 116.322 0.106129 116.703 0.40736C117.286 0.867583 117.216 2.23639 116.535 2.57149C116.139 2.76635 115.603 2.7442 115.125 2.72441C114.985 2.71863 114.85 2.71306 114.725 2.71316V11.4001C115.12 11.4001 115.524 11.4108 115.932 11.4216C117.43 11.4612 118.985 11.5023 120.379 11.0222C123.832 9.83357 124.384 5.85158 124.384 2.71316C124.236 2.71315 124.075 2.721 123.908 2.72917C123.373 2.75526 122.773 2.78457 122.338 2.57149C121.654 2.23568 121.585 0.833563 122.17 0.371864C122.532 0.0862959 123.109 0.106301 123.595 0.123167C123.707 0.127036 123.814 0.130748 123.913 0.130547H127.682C127.78 0.130748 127.887 0.127036 127.999 0.123167C128.485 0.106301 129.062 0.0862959 129.424 0.371864C129.902 0.749088 129.855 1.60816 129.819 2.27397C129.81 2.43483 129.802 2.58439 129.802 2.71316H127.446C127.354 4.86321 127.17 7.61451 126.108 9.52187C125.668 10.3117 125.084 10.9475 124.497 11.5868C124.135 11.9805 123.773 12.3756 123.441 12.8088C124.844 13.66 125.463 15.2083 126.078 16.7485C126.517 17.8478 126.954 18.943 127.674 19.7777C127.979 20.1304 128.446 20.196 128.901 20.2597C129.41 20.331 129.902 20.4 130.131 20.8661C131.27 23.1851 127.587 23.2647 126.273 22.7629C125.47 22.4565 125.105 21.701 124.753 20.973C124.684 20.832 124.617 20.6921 124.546 20.5567C124.26 20.0042 123.992 19.3883 123.718 18.757C123.091 17.3165 122.43 15.7962 121.432 14.7679C120.198 13.4962 117.906 13.6098 116.017 13.7034C115.555 13.7263 115.118 13.748 114.725 13.748V20.3219C114.894 20.3219 115.106 20.3073 115.339 20.2912C116.196 20.2321 117.347 20.1527 117.781 20.6982C118.113 21.1156 118.073 21.8441 118.041 22.4452C118.032 22.6111 118.023 22.7673 118.023 22.9045H112.369C112.124 22.9045 111.86 22.9184 111.59 22.9327C110.906 22.9688 110.177 23.0073 109.577 22.8298C108.744 22.5831 108.535 21.0986 109.213 20.5632C109.66 20.2107 110.47 20.2594 111.134 20.2994C111.327 20.311 111.507 20.3219 111.663 20.3219V2.71316ZM136.869 2.71316H134.042C134.042 2.58439 134.034 2.43483 134.025 2.27397C133.989 1.60816 133.942 0.749088 134.42 0.371864C134.782 0.0862959 135.359 0.106301 135.845 0.123167C135.957 0.127036 136.064 0.130748 136.162 0.130547H140.403C140.501 0.130748 140.608 0.127036 140.72 0.123167C141.206 0.106301 141.784 0.0862959 142.145 0.371864C142.623 0.749088 142.576 1.60819 142.54 2.27399C142.531 2.43484 142.523 2.5844 142.523 2.71316H139.696V20.3219H149.826C149.826 20.0934 149.808 19.8324 149.79 19.5575C149.739 18.7947 149.681 17.9248 149.968 17.3444C150.338 16.5952 151.905 16.5952 152.275 17.3444C152.755 18.3177 152.62 19.9771 152.505 21.3937C152.46 21.9546 152.417 22.4774 152.417 22.9045H134.042C134.042 22.7673 134.034 22.6111 134.025 22.4452C133.992 21.8441 133.953 21.1156 134.284 20.6982C134.682 20.1979 135.638 20.2559 136.367 20.3002C136.554 20.3115 136.725 20.3219 136.869 20.3219V2.71316ZM158.778 2.71316H155.951C155.951 2.5865 155.943 2.44046 155.935 2.28372C155.897 1.5535 155.847 0.590942 156.497 0.272213C157.222 -0.0836295 158.386 0.00223598 159.389 0.0762362C159.769 0.104237 160.126 0.130547 160.427 0.130547H169.379C169.632 0.130547 169.963 0.104538 170.329 0.0757346C171.429 -0.010876 172.85 -0.12275 173.477 0.371864C173.812 0.636253 173.831 1.08633 173.847 1.47973L173.85 1.54033C173.859 1.73667 173.88 1.98555 173.903 2.26555C174.003 3.44701 174.15 5.18222 173.612 5.85846C173.178 6.40553 171.704 6.40553 171.27 5.85846C171.034 5.56157 171.032 5.13035 171.03 4.755C171.03 4.69896 171.03 4.64416 171.029 4.59124C171.021 4.16701 171.023 3.7422 171.025 3.31757C171.026 3.11603 171.028 2.91454 171.028 2.71316H161.84V10.461H170.085C170.085 10.5982 170.094 10.7544 170.103 10.9203C170.135 11.5213 170.175 12.2499 169.843 12.6672C169.484 13.1188 168.711 13.0834 168.105 13.0556C167.969 13.0494 167.842 13.0436 167.73 13.0436H161.84V20.3219H171.028C171.028 20.0934 171.01 19.8324 170.992 19.5575C170.941 18.7947 170.883 17.9248 171.17 17.3444C171.534 16.6067 172.95 16.6513 173.477 17.1765C173.809 17.5079 173.83 17.9925 173.849 18.4313L173.85 18.4439C173.857 18.5941 173.872 18.7875 173.89 19.0093C173.995 20.2897 174.176 22.5155 173.113 22.8298C172.024 23.152 170.625 23.061 169.327 22.9765C168.764 22.9399 168.221 22.9045 167.73 22.9045H155.951C155.951 22.7673 155.942 22.6111 155.933 22.4452C155.901 21.8441 155.861 21.1156 156.193 20.6982C156.591 20.1979 157.546 20.2559 158.276 20.3002C158.462 20.3115 158.634 20.3219 158.778 20.3219V2.71316ZM28.5046 12.1045V2.71317C28.9486 2.71317 29.4104 2.69824 29.8812 2.68302C31.8216 2.62027 33.9175 2.55251 35.5709 3.50376C37.9502 4.87249 38.6772 9.19696 36.2532 10.9378C34.4433 12.2375 31.9821 12.1784 29.7612 12.125C29.3311 12.1146 28.9101 12.1045 28.5046 12.1045ZM49.9419 11.4001V2.71317C50.4233 2.71317 50.9338 2.69244 51.4591 2.6711C53.5259 2.58716 55.8218 2.49391 57.4768 3.61807C59.9699 5.31132 59.7878 9.67202 57.0092 10.9849C55.5322 11.6828 53.5115 11.5697 51.6919 11.4678C51.0759 11.4333 50.483 11.4001 49.9419 11.4001Z" fill="#FBFEFE"/>
<path fill-rule="evenodd" clip-rule="evenodd" d="M12.4855 48.261C8.68316 49.8392 4.57716 52.4996 2.64735 56.2436C-0.649264 62.6396 1.70965 71.9469 8.71634 74.7964C13.1944 76.6174 19.0899 76.3937 23.322 73.9773C24.1978 73.4773 24.9465 72.8073 25.6899 72.1419C26.4353 71.4747 27.1755 70.8122 28.0335 70.3306C29.2691 72.6376 32.7799 74.8577 35.3363 75.3507C37.6124 75.7897 39.9289 75.7656 42.2401 75.7416C42.7662 75.7361 43.292 75.7306 43.817 75.7306H56.3025H140.167H164.903C165.259 75.7306 165.701 75.7551 166.194 75.7823C168.597 75.9153 172.19 76.1141 172.81 73.8512C173.188 72.47 172.411 71.2111 171.027 70.8927C169.873 70.6272 168.54 70.7608 167.242 70.8908C166.517 70.9634 165.803 71.035 165.138 71.035H138.283H68.788H47.8218C46.9113 71.035 45.9487 71.0804 44.9647 71.1268L44.9635 71.1268C42.3397 71.2506 39.5642 71.3815 37.2209 70.6786C35.484 70.1578 34.0609 68.8973 32.745 67.7081C32.6713 67.6415 32.5929 67.5727 32.512 67.5017C31.9974 67.0504 31.3806 66.5094 31.2133 65.8697C30.9433 64.8375 31.7464 63.4158 32.4398 62.1883C32.7513 61.6369 33.0407 61.1246 33.2006 60.7045C33.5332 59.8313 33.848 58.9506 34.1627 58.07L34.1629 58.0695C35.1337 55.3534 36.1044 52.6375 37.5988 50.1393C38.5955 48.473 40.0019 46.7051 41.9324 46.0773C44.0795 45.3791 46.7349 46.4128 47.6677 48.4958C48.8506 51.1362 46.6586 53.6376 44.0526 53.661C44.0691 53.5724 44.0871 53.4821 44.1055 53.3905C44.224 52.7986 44.3526 52.1561 44.1124 51.5914C43.4721 50.0867 40.9685 50.0616 39.8436 50.9643C38.8471 51.764 38.7241 53.1969 38.9946 54.3654C39.8572 58.0909 44.8616 59.1066 47.9575 57.5432C51.6839 55.6616 53.2377 52.0939 52.7008 48.0262C51.7991 41.1952 42.8481 40.0185 37.9277 43.1521C32.0873 46.8718 29.6005 55.1096 27.7979 61.4089H27.3268C26.5181 59.4929 25.1626 57.6723 23.8434 55.9004C23.2225 55.0665 22.6097 54.2434 22.0657 53.4262C21.9639 53.2734 21.8225 53.0855 21.6643 52.8752L21.6637 52.8744C21.0568 52.0682 20.2026 50.9335 20.3863 50.1827C20.5191 49.6396 21.1502 49.3097 21.6536 49.0466L21.6551 49.0458C21.7449 48.9989 21.8306 48.9542 21.9086 48.9107C22.9971 48.304 24.0242 47.5942 24.9708 46.7819C28.5574 43.7032 31.141 37.6822 28.3485 33.2352C24.4709 27.0599 12.6994 27.7696 9.74083 34.4088C7.98966 38.3385 9.85482 42.4307 11.5422 46.1328C11.873 46.8586 12.197 47.5694 12.4855 48.261ZM17.4326 45.9132C18.839 45.442 20.076 44.6949 21.2015 43.7297C22.1203 42.942 22.8127 42.1027 23.273 40.9827C24.0193 39.1672 24.4657 36.9734 23.1208 35.2904C20.7858 32.3683 15.3704 32.9846 14.6832 36.9914C14.482 38.1658 14.8443 39.3947 15.1801 40.5132C15.5454 41.7297 16.0781 42.8928 16.6096 44.0532L16.6098 44.0536C16.8929 44.6717 17.1757 45.2889 17.4326 45.9132ZM11.9502 53.8422C12.5516 53.3965 13.2198 52.9013 13.8954 52.6989C14.7701 52.437 15.2134 53.127 15.6269 53.7705C15.6541 53.813 15.6813 53.8552 15.7084 53.897C16.0611 54.44 16.4057 54.9883 16.7503 55.5366C17.2963 56.4053 17.8424 57.2741 18.4206 58.1219C19.7252 60.0341 21.1142 61.88 22.5057 63.729L22.7032 63.9915C22.8123 64.1365 22.9503 64.2987 23.0985 64.4729C23.628 65.0952 24.2885 65.8716 24.2368 66.5741C24.1987 67.093 23.7759 67.518 23.4183 67.8773C23.3839 67.9119 23.3501 67.9459 23.3173 67.9793C22.166 69.1508 20.6569 70.0712 19.0817 70.556C15.4234 71.6818 11.0132 71.1866 8.57929 67.9828C5.21199 63.5501 7.37565 57.1112 11.5432 54.14C11.6748 54.0462 11.8107 53.9455 11.9502 53.8422Z" fill="#FBFEFE"/>
<path fill-rule="evenodd" clip-rule="evenodd" d="M117.787 52.2524H121.321C121.449 56.6506 126.063 59.2268 130.037 59.0519C132.553 58.9411 135.594 57.5531 135.438 54.6002C135.327 52.4829 132.774 51.2668 130.98 50.7866C130.342 50.6159 129.661 50.4564 128.959 50.2919C125.454 49.4709 121.417 48.5251 119.549 45.4437C117.4 41.8982 119.19 36.9246 122.97 35.3459C126.917 33.6975 131.67 34.3809 134.984 36.9915C134.984 36.8729 134.978 36.7409 134.972 36.6017C134.947 36.0596 134.917 35.4086 135.227 35.02C135.735 34.3809 137.763 34.4239 138.14 35.1879C138.409 35.7314 138.358 36.5354 138.313 37.24C138.297 37.4877 138.282 37.7231 138.282 37.9306V44.035H134.749C134.749 43.8813 134.752 43.7247 134.756 43.5665C134.769 42.9344 134.784 42.2777 134.583 41.6872C133.676 39.0146 130.486 37.9125 127.917 37.9318C125.563 37.9492 122.293 39.2743 122.598 42.1567C122.854 44.5775 125.491 45.4348 127.441 46.069L127.446 46.0705C128.273 46.3395 129.196 46.5753 130.154 46.8202C133.597 47.7 137.503 48.6984 139.13 51.7838C141.351 55.9953 138.159 60.6886 134.042 61.8989C129.294 63.2947 124.568 61.9902 121.085 58.5915V62.1133H117.787V52.2524ZM63.1339 59.0611V37.6958C62.9046 37.6958 62.6427 37.7132 62.3669 37.7314C61.6015 37.782 60.7288 37.8397 60.1464 37.5543C59.4034 37.1896 59.353 35.3783 59.9779 34.885C60.3397 34.5995 60.9168 34.6195 61.403 34.6363C61.5149 34.6402 61.622 34.6439 61.7205 34.6437H65.4897C65.8166 34.6437 66.1461 34.6426 66.4778 34.6415C71.7811 34.6245 77.6083 34.6059 81.4379 38.8789C86.4418 44.4625 85.7221 55.9695 79.153 60.1038C75.8354 62.1918 72.0858 62.157 68.3403 62.1222C67.8609 62.1177 67.3815 62.1133 66.9031 62.1133H62.1916C62.0443 62.1133 61.8834 62.1212 61.7159 62.1294C61.1819 62.1556 60.5817 62.1851 60.1464 61.9717C59.4034 61.6071 59.353 59.7957 59.9779 59.3025C60.5048 58.8866 61.5658 58.9629 62.4139 59.0239C62.6834 59.0433 62.9314 59.0611 63.1339 59.0611ZM96.5856 37.6958H94.2299C94.2299 37.5244 94.2166 37.3215 94.2022 37.1033C94.155 36.3816 94.0967 35.4923 94.472 35.02C94.8309 34.5685 95.6038 34.6039 96.2107 34.6317C96.3461 34.6379 96.4732 34.6437 96.5856 34.6437C96.8879 34.6435 97.2284 34.6265 97.5898 34.6084C99.1686 34.5293 101.145 34.4303 102.066 35.6356C102.327 35.9775 102.453 36.4018 102.578 36.8213C102.644 37.04 102.709 37.2573 102.792 37.4611C103.174 38.3954 103.532 39.3314 103.89 40.2686C104.07 40.7412 104.251 41.2141 104.435 41.6872C105.066 43.3096 105.683 44.9414 106.299 46.574C107.525 49.8172 108.751 53.0632 110.096 56.2437C110.169 56.4159 110.24 56.6107 110.314 56.8153C110.61 57.6274 110.962 58.5939 111.713 58.9195C111.988 59.039 112.33 59.0407 112.674 59.0424C113.186 59.0449 113.702 59.0475 114.012 59.4374C114.387 59.9097 114.329 60.7989 114.281 61.5206C114.267 61.7389 114.254 61.9418 114.254 62.1133H108.129C107.86 62.1133 107.571 62.1291 107.274 62.1454C106.535 62.1859 105.745 62.2292 105.101 62.0386C104.19 61.7691 104.024 59.865 104.737 59.3025C105.211 58.9284 106.103 58.9865 106.827 59.0336C107.046 59.0478 107.25 59.0611 107.422 59.0611C107.187 58.0764 106.805 57.1319 106.423 56.187C105.965 55.0556 105.507 53.9238 105.302 52.722H97.7635C97.5767 52.722 97.3722 52.7119 97.1586 52.7015C96.3405 52.6615 95.3893 52.615 94.7938 53.0983C94.2118 53.5708 93.9918 54.3568 93.79 55.0775C93.7457 55.236 93.7023 55.3913 93.656 55.5393C93.484 56.0904 93.2639 56.6217 93.0439 57.1528C92.7847 57.7785 92.5256 58.404 92.3453 59.0611C92.5023 59.0611 92.6944 59.0485 92.9047 59.0348C93.6974 58.9829 94.7497 58.914 95.1656 59.4374C95.5409 59.9097 95.4826 60.7989 95.4353 61.5206C95.421 61.7389 95.4077 61.9418 95.4077 62.1133H88.3405C88.198 62.1133 88.0274 62.1236 87.8419 62.1349C87.1133 62.1793 86.1536 62.2377 85.7558 61.7369C85.5807 61.5167 85.5404 61.2053 85.5275 60.9349L85.5249 60.8813C85.5146 60.6698 85.5039 60.4488 85.5275 60.2395C85.6491 59.17 86.2794 59.1404 86.9943 59.1067C87.4214 59.0866 87.8786 59.0651 88.2757 58.8197C88.7985 58.4968 89.0648 57.8291 89.2962 57.249C89.3376 57.1451 89.378 57.0439 89.4185 56.948C90.4827 54.4294 91.4154 51.8463 92.3468 49.2668C92.9225 47.6727 93.4975 46.0799 94.1029 44.5045C94.347 43.8693 94.6246 43.2216 94.9058 42.5659C95.5901 40.9694 96.295 39.3251 96.5856 37.6958ZM148.177 37.6958H144.879C144.879 37.5393 144.866 37.3479 144.852 37.1383C144.8 36.3482 144.731 35.2995 145.256 34.885C145.676 34.5538 146.408 34.5935 147.01 34.6262C147.176 34.6352 147.333 34.6437 147.47 34.6437H152.652C152.79 34.6437 152.946 34.6352 153.112 34.6262C153.715 34.5935 154.447 34.5538 154.866 34.885C155.391 35.2995 155.322 36.3482 155.27 37.1383C155.256 37.3479 155.244 37.5393 155.244 37.6958H151.71V47.0872H165.845V37.6958H162.547V34.6437H168.907C169.187 34.6437 169.489 34.6274 169.8 34.6106C170.606 34.5672 171.473 34.5206 172.17 34.7455C173.069 35.0355 173.257 36.8844 172.534 37.4545C172.008 37.8703 170.946 37.794 170.098 37.7331C169.829 37.7137 169.581 37.6958 169.378 37.6958V59.0611C169.581 59.0611 169.829 59.0433 170.098 59.0239C170.946 58.9629 172.008 58.8866 172.534 59.3025C173.247 59.865 173.082 61.7691 172.17 62.0386C171.526 62.2292 170.737 62.1859 169.998 62.1454C169.7 62.1291 169.411 62.1133 169.143 62.1133H162.547V59.0611H165.845V49.9046H151.71V59.0611C151.89 59.0611 152.121 59.0446 152.377 59.0262C153.298 58.9603 154.551 58.8704 155.002 59.4374C155.377 59.9097 155.319 60.7989 155.271 61.5206C155.257 61.7389 155.244 61.9418 155.244 62.1133H148.648C148.379 62.1133 148.09 62.1291 147.793 62.1454C147.054 62.1859 146.264 62.2292 145.62 62.0386C144.709 61.7691 144.543 59.865 145.256 59.3025C145.757 58.9072 146.733 58.9745 147.519 59.0287C147.763 59.0455 147.989 59.0611 148.177 59.0611V37.6958ZM66.6676 59.0611V37.6958C66.8288 37.6958 66.9912 37.6956 67.1546 37.6954C70.6566 37.6904 74.6132 37.6848 77.5005 39.9338C82.2358 43.6224 82.1969 53.7461 77.2684 57.268C74.5969 59.1772 71.3023 59.1258 68.1448 59.0765C67.648 59.0688 67.1546 59.0611 66.6676 59.0611ZM97.8745 44.2427C98.5216 42.5487 99.1697 40.8517 99.6481 39.1045C100.431 39.6366 100.713 40.593 100.981 41.5022C101.047 41.7255 101.112 41.946 101.183 42.1567C101.469 43.0016 101.845 43.8708 102.225 44.7524C102.959 46.4519 103.713 48.1976 103.888 49.9045H95.8789C95.97 49.0159 96.3056 48.2299 96.6464 47.4318C96.7934 47.0874 96.9414 46.7409 97.0711 46.3828C97.3302 45.6676 97.6023 44.9554 97.8745 44.2427Z" fill="#FBFEFE"/>
</svg>
